<svg id="uuid-f5c36b6c-2cdc-4ffd-9d3b-ea39ff831d9c" xmlns="http://www.w3.org/2000/svg" viewBox="0 0 1542.4 380.8"><path d="m28.8,53.6H6.6c-3.5,0-6.4,2.9-6.4,6.4v119.9c0,3.5,2.9,6.4,6.4,6.4h22.2c3.5,0,6.4-2.9,6.4-6.4V59.9c0-3.5-2.9-6.4-6.4-6.4Z" style="fill:#0069b4;"></path><path d="m281.1,5.7c-1-1.4-2.6-2.1-4.8-2.1h-21.7c-5.2,0-8.8,3.4-10.4,7.5l-31.4,85.5c-.6,2-1.6,3-2.8,3s-2.2-.9-3-2.8L167.3,6.6c-.8-1.8-2.3-2.8-4.5-2.8s-3.7.9-4.5,2.8l-39.7,90.2c-.8,1.8-1.8,2.8-3,2.8s-2.1-1-2.8-3L81.4,11.1c-1.5-4.2-5.2-7.5-10.4-7.5H6.4C2.8,3.5,0,6.4,0,9.9v18.2c0,3.5,2.9,6.4,6.4,6.4h42c2.6,0,5,1.5,5.9,3.8l52.9,145c.8,2,2.3,3,4.5,3s3.7-.9,4.5-2.8l43.2-96.8c.8-2,1.9-3,3.2-3s2.4,1,3.2,3l43.2,96.8c.8,1.9,2.3,2.8,4.5,2.8s3.7-1,4.5-3L281.1,10.8c1-2,1-3.7,0-5.1Z" style="fill:#0069b4;"></path><path d="m480.4,147.8c-1.7,2.3-3.4,4.6-5.1,6.8-1.7,2.3-3.6,4.4-5.6,6.4-5.5,5.8-12,10.9-19.5,15.2-3.5,2.2-7.2,4.1-11,5.7-3.8,1.7-7.8,3.1-12,4.3-8.5,2.3-17,3.5-25.5,3.5-13,0-25.2-2.5-36.7-7.5-11.5-5-21.6-11.8-30.3-20.5-8.5-8.5-15.2-18.5-20.3-30-5-11.5-7.5-23.7-7.5-36.7s2.5-25.2,7.5-36.7c5-11.3,11.7-21.4,20.3-30.2,8.8-8.5,18.9-15.2,30.3-20.2,11.5-5,23.7-7.5,36.7-7.5s17,1.2,25.5,3.5c8.3,2.3,16,5.6,23,9.7,3.7,2.2,7.1,4.5,10.4,7.1,3.2,2.6,6.3,5.3,9.1,8.1,4.2,4.3,7.7,8.8,10.8,13.2,1.2,1.8,1.4,3.6.8,5.3-.6,1.7-2,3-4,3.9l-18.6,7.7c-1.8.8-3.9,1-6.1.4-2.3-.6-4.1-1.7-5.4-3.4-.8-.8-1.7-1.7-2.5-2.6-.8-.9-1.7-1.8-2.5-2.6-1.8-1.8-3.7-3.5-5.6-5-1.9-1.5-3.9-2.9-6.1-4.3-2.2-1.4-4.4-2.5-6.8-3.5-2.3-1-4.6-1.9-7-2.8-4.8-1.5-9.8-2.3-15-2.3-8.2,0-16,1.7-23.5,5-7.4,3.5-13.6,8.1-18.7,13.7-5.4,5.8-9.6,12.4-12.7,19.7-3.2,7.5-4.8,15.4-4.8,23.7s1.6,16.4,4.8,23.7c3.2,7.3,7.4,13.9,12.7,19.7,5.2,5.8,11.4,10.3,18.7,13.5,7.2,3.5,15,5.2,23.5,5.2s10.1-.8,15-2.3c2.3-.8,4.6-1.7,7-2.8,2.3-1,4.6-2.2,6.8-3.5,2.2-1.4,4.2-2.8,6.1-4.4,1.9-1.6,3.8-3.3,5.6-5.1.8-.8,1.7-1.7,2.5-2.6.8-.9,1.7-1.8,2.5-2.6,1.4-1.7,3.1-2.8,5.4-3.5,2.3-.6,4.3-.6,6.1.3l18.5,7.5c2,.8,3.4,2.2,4,4,.6,1.9.4,3.7-.8,5.5Z" style="fill:#b5c6d5;"></path><path d="m596.9,189.7c-13,0-25.2-2.5-36.7-7.5-11.5-5-21.6-11.8-30.1-20.4-8.6-8.6-15.4-18.6-20.4-30.1-5-11.5-7.5-23.8-7.5-36.9s2.5-25.3,7.5-36.8c5-11.5,11.8-21.7,20.4-30.2,8.6-8.6,18.6-15.3,30.1-20.4,11.5-5,23.7-7.5,36.7-7.5s25.5,2.5,37,7.5c11.5,5,21.6,11.8,30.1,20.4,8.6,8.6,15.4,18.6,20.4,30.2,5,11.5,7.5,23.8,7.5,36.8s-2.5,25.5-7.5,36.9c-5,11.5-11.8,21.5-20.4,30.1-8.6,8.6-18.6,15.3-30.1,20.4-11.5,5-23.8,7.5-37,7.5Zm.1-157c-8.3,0-16.1,1.7-23.3,5.1-7.2,3.4-13.6,7.9-19,13.6-5.4,5.7-9.7,12.2-12.8,19.9-3.2,7.6-4.7,15.4-4.7,23.6s1.5,16.2,4.7,23.7c3.2,7.5,7.4,14.1,12.8,19.9,5.4,5.7,11.7,10.3,19,13.7,7.2,3.4,15,5.1,23.3,5.1s16.1-1.7,23.3-5.1c7.2-3.4,13.6-8,19-13.7,5.4-5.7,9.7-12.4,12.8-19.9,3.2-7.5,4.7-15.4,4.7-23.7s-1.6-16-4.7-23.6c-3.2-7.5-7.4-14.2-12.8-19.9-5.4-5.7-11.7-10.2-19-13.6-7.2-3.4-15-5.1-23.3-5.1Z" style="fill:#b5c6d5;"></path><path d="m757.7,85.4v93.1c0,2.2-.8,4-2.3,5.5-1.5,1.5-3.4,2.3-5.5,2.3h-19.7c-2,0-3.7-.8-5.2-2.3-1.5-1.5-2.3-3.4-2.3-5.5V7.8c0-2.2,1-3.5,3.1-3.9,2.1-.4,3.9,0,5.4,1.4l109.7,103.6c1.7,1.5,3,2,4.1,1.5,1.1-.5,1.6-1.8,1.6-4V11.5c0-2.2.8-4,2.3-5.5,1.5-1.5,3.4-2.3,5.5-2.3h19.5c2.2,0,4,.8,5.5,2.3,1.5,1.5,2.3,3.4,2.3,5.5v170.5c0,2.2-1,3.5-3.1,3.9-2.1.4-3.9,0-5.6-1.4l-109.4-101.8c-1.7-1.4-3-1.7-4.1-1.2-1,.5-1.6,1.8-1.6,3.9Z" style="fill:#b5c6d5;"></path><path d="m918.7,156l10.5-15.5c1.2-1.8,2.8-2.9,4.8-3.2,2-.3,3.9,0,5.7,1.2,7.5,4.6,14.8,8.6,22,12,9.5,4.6,19.7,7,30.7,7s10.6-.8,15-2.3c4-1.2,7.7-3,11-5.5,3-2.3,5.2-4.9,6.8-7.7,1.5-2.6,2.3-5.5,2.3-8.5s-1.2-6.6-3.5-9.5c-2.2-2.3-5.2-4.4-9-6.3-1.8-.8-3.8-1.6-6-2.3-2.2-.6-4.6-1.4-7.2-2-2.5-.6-5-1.2-7.6-1.7-2.6-.5-5.3-1-8.1-1.5-1.8-.3-3.8-.7-6-1.1-2.2-.4-4.4-.9-6.8-1.4-4.8-.6-9.8-1.9-15-3.7-5.3-1.5-10.4-3.5-15.2-6.3-5-2.5-9.5-5.7-13.5-9.7-4-3.7-7.2-8.3-9.7-14-2.3-5.5-3.5-11.8-3.5-18.9,0-10.5,2.2-19.4,6.5-26.7,4.1-6.8,9.7-12.4,16.5-16.7,6.5-3.8,14-6.6,22.5-8.5,7.8-1.7,15.8-2.5,24-2.5s14.5.5,20.5,1.5c3,.5,5.9,1.1,8.6,1.9,2.8.8,5.5,1.5,8.1,2.4,2.6,1,5.2,2.1,7.7,3.4,2.5,1.2,4.9,2.5,7.2,3.9,1.7,1,3.2,2,4.8,3,1.5,1,3.2,2,5,3,1.8,1.4,2.9,3,3.2,5s-.2,3.9-1.5,5.7l-10.5,15c-1.4,1.8-3,2.9-5.1,3.2-2.1.3-4.1,0-5.9-1.2-6.5-4.2-12.6-7.3-18.5-9.5-7.8-3.2-16.3-4.8-25.2-4.8s-3.1,0-4.9.3c-1.7.2-3.6.4-5.4.8-3.8.8-7.5,2.1-11,3.7-1.7.8-3.2,1.7-4.6,2.8-1.4,1-2.7,2.2-3.9,3.5-2.2,2.6-3.2,5.8-3.2,9.5s1.4,6.8,4,9.2c2.6,2.5,6.1,4.6,10.3,6.3,2.2.8,4.4,1.6,6.6,2.3s4.6,1.4,7.1,2c2.5.6,5,1.2,7.4,1.7,2.4.5,4.8,1.1,7.1,1.7,1.8.3,3.7.8,5.7,1.2,2,.5,4.1.9,6.5,1.2,2.3.3,4.8.8,7.2,1.4,2.5.6,5,1.3,7.5,2.1,1.4.3,2.7.8,4.1,1.2,1.4.5,2.8,1,4.1,1.5,2,.8,4.3,1.9,6.8,3.2,2.6,1.4,4.8,2.6,6.6,4,1.4.8,2.5,1.7,3.6,2.6,1.1.9,2.1,1.9,3.1,2.9,4.1,4.2,7.4,9,9.5,14.5,2.5,5.8,3.7,12.8,3.7,20.9s-1.7,17.5-5,24.7c-3.4,7-8.1,12.7-14.3,17.2-6.3,4.8-13.7,8.3-22,10.5-8.8,2.3-18.3,3.5-28.3,3.5s-18.1-.8-25.2-2.3c-6.8-1.2-13.4-3.1-19.7-5.7-3-1.2-5.9-2.4-8.8-3.9-2.8-1.4-5.6-3-8.3-4.6-1.7-1-3.4-2.1-5-3.1-1.7-1.1-3.4-2.3-5.2-3.6-1.8-1.2-2.9-2.8-3.2-4.8-.4-1.8,0-3.7,1.1-5.5Z" style="fill:#b5c6d5;"></path><path d="m1137.8,184c-10-3.8-18.3-9-24.7-15.5-7-6.6-12.3-14.7-16-24.2-3.7-9.3-5.5-19.9-5.5-31.7V11.5c0-2.2.8-4,2.3-5.5,1.5-1.5,3.2-2.3,5.2-2.3h19.7c2.2,0,4,.8,5.5,2.3,1.5,1.5,2.3,3.4,2.3,5.5v100.8c0,9.2,1.5,16.7,4.5,22.7,3,5.8,6.6,10.6,11,14.2,4.6,3.7,9.4,6.1,14.3,7.2,2.6.6,5.1,1.2,7.3,1.5,2.3.3,4.4.5,6.4.5,3.7,0,8.1-.6,13.5-2,5.2-1.2,9.9-3.5,14.3-7.2,4.5-3.5,8.3-8.3,11.2-14.2,3-6,4.5-13.5,4.5-22.7V11.5c0-2.2.8-4,2.3-5.5,1.5-1.5,3.4-2.3,5.5-2.3h19.5c2.2,0,4,.8,5.5,2.3,1.5,1.5,2.3,3.4,2.3,5.5v101.1c0,5.8-.4,11.3-1.4,16.6-.9,5.2-2.3,10.2-4.1,15.1-3.7,9.3-8.9,17.4-15.7,24.2-6.6,6.5-14.9,11.7-24.7,15.5-9.5,3.7-20.3,5.5-32.5,5.5s-23-1.8-32.3-5.5Z" style="fill:#b5c6d5;"></path><path d="m1420.2,163v15.5c0,2.2-.8,4-2.3,5.5s-3.4,2.3-5.5,2.3h-116.2c-2.2,0-4-.8-5.5-2.3s-2.3-3.4-2.3-5.5V11.3c0-2.2.8-4,2.3-5.5s3.4-2.3,5.5-2.3h19.5c2.2,0,4,.8,5.5,2.3s2.3,3.4,2.3,5.5v136.3c0,2.2.8,4,2.3,5.5s3.4,2.3,5.5,2.3h81.2c2.2,0,4,.8,5.5,2.3,1.5,1.5,2.3,3.4,2.3,5.5Z" style="fill:#b5c6d5;"></path><path d="m1534.6,34.5h-36.7c-2.2,0-4,.8-5.5,2.3-1.5,1.5-2.3,3.4-2.3,5.5v136.3c0,2.2-.8,4-2.3,5.5s-3.4,2.3-5.5,2.3h-19.5c-2.2,0-4-.8-5.5-2.3-1.5-1.5-2.3-3.4-2.3-5.5V42.2c0-2.2-.8-4-2.3-5.5-1.5-1.5-3.4-2.3-5.5-2.3h-37c-2.2,0-4-.8-5.5-2.3-1.5-1.5-2.3-3.4-2.3-5.5v-15.5c0-2.2.8-4,2.3-5.5,1.5-1.5,3.4-2.3,5.5-2.3h124.2c2.2,0,4,.8,5.5,2.3,1.5,1.5,2.3,3.4,2.3,5.5v15.5c0,2.2-.8,4-2.3,5.5-1.5,1.5-3.4,2.3-5.5,2.3Z" style="fill:#b5c6d5;"></path><path d="m1537.5,365.2c-1.7-1.7-3.7-2.5-6.2-2.5s-4.4.8-6.1,2.5c-1.7,1.7-2.5,3.7-2.5,6.1s.8,4.5,2.5,6.2c1.7,1.7,3.7,2.5,6.1,2.5s4.5-.8,6.2-2.5c1.7-1.7,2.5-3.7,2.5-6.2s-.8-4.4-2.5-6.1Zm-71.4-56.8c.7-.7,1.5-1.1,2.6-1.1h39.8c1,0,1.9-.3,2.6-1,.7-.7,1.1-1.5,1.1-2.6v-7.3c0-1-.4-1.9-1.1-2.6-.7-.7-1.6-1-2.6-1h-56.4c-1,0-1.9.3-2.6,1-.7.7-1,1.5-1,2.6v79.1c0,1,.3,1.9,1,2.6.7.7,1.6,1,2.6,1h56.4c1,0,1.9-.3,2.6-1,.7-.7,1.1-1.5,1.1-2.6v-7.5c0-1-.4-1.9-1.1-2.6-.7-.7-1.6-1.1-2.6-1.1h-39.8c-1,0-1.9-.3-2.6-1-.7-.7-1.1-1.5-1.1-2.6v-13c0-1,.4-1.9,1.1-2.6.7-.7,1.5-1.1,2.6-1.1h34.5c1,0,1.9-.3,2.6-1s1-1.5,1-2.6v-7.8c0-1-.3-1.9-1-2.6-.7-.7-1.6-1-2.6-1h-34.5c-1,0-1.9-.3-2.6-1-.7-.7-1.1-1.5-1.1-2.6v-14.3c0-1.1.4-1.9,1.1-2.6Zm-85.1,27.5c-.7-.7-1.1-1.5-1.1-2.6v-22.3c0-1,.3-1.9,1.1-2.6.7-.7,1.5-1.1,2.6-1.1h19.2c2.8,0,5.2.6,7,1.7,1.7,1.1,3.1,2.4,4,4,.4.8.8,1.6,1.1,2.4.3.8.5,1.7.7,2.5.3,1.5.4,3.1.4,4.5,0,2.6-.4,4.7-1.2,6.4-.8,1.8-1.9,3.3-3.1,4.5-1.2,1.2-2.6,2.1-4.4,2.7-1.7.6-3.2,1-4.6,1h-19.2c-1,0-1.9-.5-2.6-1.2Zm-2.1,42.2c.6-.7,1-1.5,1-2.6v-20.2c0-1,.3-1.9,1.1-2.6.7-.7,1.6-1.1,2.6-1.1h9.1c1,0,2.1.3,3.2.8,1.1.6,1.9,1.3,2.6,2.1l7.8,11c1.4,1.8,2.6,3.6,3.9,5.3,1.3,1.7,2.6,3.5,3.9,5.3.6.8,1.5,1.5,2.6,2,1.1.6,2.2.8,3.2.8h11.9c1,0,1.7-.5,1.9-1.3.3-.8.1-1.7-.5-2.6-2.8-3.9-5.5-7.7-8.2-11.2s-5.4-7.2-8.3-11.2c-.6-.8-.8-1.6-.6-2.4.3-.8.8-1.5,1.7-1.9,4-2.2,7.3-5.2,9.8-9,3.2-4.7,4.8-10.4,4.8-17.1s-.7-8.3-2.1-12.1c-.7-1.8-1.6-3.5-2.6-5.1-1-1.5-2.2-3-3.6-4.4-2.6-2.5-5.7-4.6-9.4-6.1-3.7-1.4-7.7-2.1-12.2-2.1h-35.7c-1,0-1.9.3-2.6,1-.7.7-1,1.5-1,2.6v79.1c0,1,.3,1.9,1,2.6.7.7,1.6,1,2.6,1h9.4c1.1.2,1.9-.2,2.6-.9Zm-71.6,2.6c5.7,0,10.9-.8,15.4-2.6,4.6-1.8,8.5-4.3,11.7-7.3,3.2-3.2,5.7-7,7.4-11.5.8-2.3,1.5-4.6,1.9-7.2.4-2.4.6-5.1.6-7.9v-47.7c0-1-.3-1.9-1-2.6-.7-.7-1.6-1-2.6-1h-9.2c-1,0-1.9.3-2.6,1-.7.7-1,1.5-1,2.6v47.7c0,4.3-.7,7.9-2.1,10.8-1.4,2.8-3.2,5.1-5.3,6.7-2.1,1.7-4.3,2.9-6.7,3.4-2.5.6-4.6,1-6.4,1s-1.9,0-3-.3c-1.1-.1-2.3-.4-3.5-.7-2.3-.5-4.5-1.7-6.7-3.4-2.1-1.7-3.8-4-5.2-6.7-1.4-2.8-2.1-6.4-2.1-10.8v-47.7c0-1-.3-1.9-1-2.6-.7-.7-1.6-1-2.6-1h-9.4c-1,0-1.7.3-2.5,1s-1.1,1.5-1.1,2.6v47.8c0,5.6.8,10.6,2.6,15,1.7,4.5,4.3,8.3,7.5,11.5,3.1,3.1,7,5.5,11.7,7.3,4.5,1.6,9.5,2.4,15.2,2.4Zm-49.5-74.3c.7-.7,1-1.5,1-2.6v-7.3c0-1-.3-1.9-1-2.6-.7-.7-1.5-1-2.6-1h-58.7c-1,0-1.9.3-2.6,1-.7.7-1,1.5-1,2.6v7.3c0,1,.3,1.9,1,2.6.7.7,1.5,1,2.6,1h17.5c1,0,1.9.3,2.6,1.1.7.7,1,1.5,1,2.6v64.5c0,1,.3,1.9,1.1,2.6.7.7,1.6,1,2.6,1h9.2c1,0,1.9-.3,2.6-1,.7-.7,1.1-1.5,1.1-2.6v-64.5c0-1,.3-1.9,1-2.6.7-.7,1.5-1.1,2.6-1.1h17.4c1.1,0,1.9-.3,2.6-1Zm-112.3,74.3c5.7,0,10.8-.8,15.4-2.6,4.6-1.8,8.5-4.3,11.7-7.3,3.2-3.2,5.7-7,7.4-11.5.8-2.3,1.5-4.6,1.9-7.2.4-2.4.6-5.1.6-7.9v-47.7c0-1-.3-1.9-1.1-2.6-.7-.7-1.6-1-2.6-1h-9.2c-1,0-1.9.3-2.6,1-.7.7-1,1.5-1,2.6v47.7c0,4.3-.7,7.9-2.1,10.8-1.4,2.8-3.2,5.1-5.3,6.7-2.1,1.7-4.3,2.9-6.7,3.4-2.5.6-4.6,1-6.4,1s-1.9,0-3-.3c-1.1-.1-2.3-.4-3.5-.7-2.3-.5-4.5-1.7-6.7-3.4-2.1-1.7-3.8-4-5.2-6.7-1.4-2.8-2.1-6.4-2.1-10.8v-47.7c0-1-.3-1.9-1-2.6-.7-.7-1.6-1-2.6-1h-9.4c-1,0-1.7.3-2.5,1-.7.7-1,1.5-1,2.6v47.8c0,5.6.8,10.6,2.6,15,1.7,4.5,4.3,8.3,7.5,11.5,3.1,3.1,7,5.5,11.7,7.3,4.4,1.6,9.5,2.4,15.2,2.4Zm-96.5-72.2c.7-.7,1.6-1.1,2.6-1.1h39.8c1,0,1.9-.3,2.5-1,.6-.7,1-1.5,1-2.6v-7.3c0-1-.3-1.9-1-2.6-.6-.7-1.5-1-2.5-1h-56.4c-1,0-1.9.3-2.6,1-.7.7-1.1,1.5-1.1,2.6v79.1c0,1,.4,1.9,1.1,2.6.7.7,1.5,1,2.6,1h9.4c1,0,1.9-.3,2.5-1,.6-.7,1-1.5,1-2.6v-27.8c0-1,.3-1.9,1.1-2.6.7-.7,1.6-1.1,2.6-1.1h34.5c1,0,1.9-.3,2.5-1,.6-.7,1-1.5,1-2.6v-7.9c0-1-.3-1.9-1-2.6-.6-.7-1.6-1-2.5-1h-34.5c-1,0-1.9-.4-2.6-1.1-.7-.7-1.1-1.5-1.1-2.6v-14.1c0-1.1.4-1.9,1.1-2.6Zm-72.4,56.8c-1.7-1.7-3.7-2.5-6.2-2.5s-4.4.8-6.1,2.5c-1.7,1.7-2.5,3.7-2.5,6.1s.8,4.5,2.5,6.2c1.7,1.7,3.7,2.5,6.1,2.5s4.5-.8,6.2-2.5c1.7-1.7,2.5-3.7,2.5-6.2,0-2.4-.8-4.4-2.5-6.1Zm-90.7,2.3c.1,1,.6,1.7,1.6,2.3.8.6,1.7,1.2,2.5,1.7.8.5,1.5,1,2.4,1.5,1.2.8,2.6,1.5,3.9,2.2,1.4.6,2.7,1.3,4.1,1.8,3,1.3,6.1,2.2,9.4,2.7,3.4.7,7.4,1,11.9,1s9.2-.6,13.4-1.7c3.9-1,7.4-2.6,10.4-5,2.9-2.1,5.2-4.8,6.7-8.1,1.6-3.4,2.4-7.3,2.4-11.7s-.6-7.2-1.7-9.9c-1-2.6-2.5-4.9-4.5-6.8-.4-.5-1-.9-1.5-1.4-.5-.5-1.1-.8-1.7-1.2-.8-.6-1.9-1.3-3.2-1.9-1.2-.6-2.3-1.2-3.2-1.5-.6-.3-1.3-.5-1.9-.7-.6-.3-1.3-.5-1.9-.6-1.2-.4-2.4-.7-3.5-1-1.2-.3-2.3-.5-3.4-.6-1.1-.1-2.1-.3-3.1-.6s-1.9-.5-2.7-.6c-1.1-.3-2.3-.6-3.4-.8-1.2-.3-2.3-.5-3.5-.8-1.2-.3-2.3-.6-3.4-1-1.1-.3-2.1-.6-3.2-1.1-1.9-.8-3.6-1.7-4.8-3-1.3-1.2-1.9-2.6-1.9-4.4s.5-3.2,1.5-4.5c.6-.6,1.2-1.2,1.8-1.7.6-.5,1.4-.9,2.2-1.3,1.7-.8,3.4-1.4,5.2-1.7.8-.1,1.7-.3,2.5-.4.8,0,1.6-.1,2.3-.1,4.3,0,8.3.8,11.9,2.3,2.8,1,5.7,2.5,8.7,4.5.8.6,1.8.8,2.8.6,1-.1,1.8-.6,2.5-1.5l5-7.1c.6-.8.8-1.7.7-2.7-.1-1-.6-1.7-1.6-2.4-.8-.5-1.7-1-2.4-1.4-.7-.5-1.5-1-2.3-1.4-1.1-.6-2.3-1.2-3.4-1.8-1.2-.6-2.4-1.1-3.7-1.6-1.3-.4-2.5-.8-3.9-1.1-1.4-.3-2.6-.6-4.1-.9-2.8-.5-6.1-.7-9.7-.7s-7.6.4-11.4,1.2c-4,.8-7.5,2.2-10.6,4-3.2,2.1-5.8,4.7-7.8,7.9-2.1,3.5-3.1,7.7-3.1,12.6s.6,6.4,1.7,9c1.2,2.7,2.7,4.9,4.6,6.6,1.9,1.9,4,3.4,6.4,4.6,2.3,1.3,4.7,2.3,7.2,3,2.4.8,4.8,1.5,7.1,1.7,1.1.3,2.2.5,3.2.6,1,.2,1.9.4,2.8.5,1.4.3,2.6.5,3.9.7,1.2.3,2.4.5,3.6.8,1.3.3,2.4.6,3.4,1,1,.3,1.9.6,2.8,1.1,1.8.8,3.2,1.9,4.3,3,1.1,1.4,1.7,2.8,1.7,4.5s-.4,2.8-1.1,4c-.7,1.4-1.7,2.6-3.2,3.7-1.5,1.2-3.3,2.1-5.2,2.6-2.1.7-4.4,1-7.1,1-5.2,0-10.1-1.1-14.5-3.3-3.4-1.5-6.8-3.5-10.4-5.7-.8-.5-1.7-.8-2.7-.6-1,.1-1.7.6-2.3,1.5l-5,7.3c-.5,1-.7,1.9-.5,2.8Zm-6.8-61.2c.7-.7,1-1.5,1-2.6v-7.3c0-1-.3-1.9-1-2.6-.7-.7-1.5-1-2.6-1h-58.7c-1,0-1.9.3-2.6,1-.7.7-1,1.5-1,2.6v7.3c0,1,.3,1.9,1,2.6.7.7,1.5,1,2.6,1h17.5c1,0,1.9.3,2.6,1.1.7.7,1.1,1.5,1.1,2.6v64.5c0,1,.3,1.9,1,2.6.7.7,1.6,1,2.6,1h9.2c1,0,1.9-.3,2.6-1,.7-.7,1.1-1.5,1.1-2.6v-64.5c0-1,.3-1.9,1-2.6.7-.7,1.5-1.1,2.6-1.1h17.4c1.1,0,1.9-.3,2.6-1Zm-78.2-12.5c-.7-.7-1.6-1-2.6-1h-9.2c-1,0-1.9.3-2.6,1-.7.7-1,1.5-1,2.6v30.1c0,1-.3,1.9-1.1,2.6-.7.7-1.6,1-2.6,1h-35.4c-1,0-1.9-.3-2.6-1-.7-.7-1-1.5-1-2.6v-30.1c0-1-.3-1.9-1.1-2.6-.7-.7-1.6-1-2.6-1h-9.2c-1,0-1.9.3-2.6,1-.7.7-1,1.5-1,2.6v79.1c0,1,.3,1.9,1,2.6.7.7,1.6,1,2.6,1h9.2c1,0,1.9-.3,2.6-1,.7-.7,1.1-1.5,1.1-2.6v-27c0-1,.3-1.9,1-2.6.7-.7,1.5-1.1,2.6-1.1h35.4c1,0,1.9.4,2.6,1.1.7.7,1.1,1.5,1.1,2.6v27c0,1,.3,1.9,1,2.6.7.7,1.6,1,2.6,1h9.2c1,0,1.9-.3,2.6-1,.7-.7,1-1.5,1-2.6v-79.1c0-1-.3-1.9-1-2.6Zm-89.4,39.2c-.7-.7-1.5-1-2.6-1h-42.6c-1,0-1.9.3-2.6,1-.7.7-1,1.5-1,2.6v7.5c0,1,.3,1.9,1,2.6.7.7,1.5,1.1,2.6,1.1h24.6c1,0,1.8.3,2.3,1,.5.6.5,1.5,0,2.4-.5,1.4-1.4,2.8-2.4,4.1-1.8,2.4-3.8,4.3-6,5.9-2.3,1.7-4.8,2.9-7.5,3.8-2.8,1-5.6,1.4-8.6,1.4s-7.6-.8-11-2.4c-3.5-1.5-6.5-3.7-9-6.4-2.5-2.6-4.6-5.8-6.1-9.3-1.5-3.5-2.3-7.2-2.3-11.2s.8-7.7,2.3-11.2c1.5-3.5,3.6-6.6,6.1-9.3,2.4-2.6,5.4-4.8,9-6.5,3.5-1.5,7.2-2.4,11-2.4s9,1.3,13.2,3.8c1.5.8,2.8,1.9,4.1,3,1.2,1.1,2.4,2.3,3.5,3.5.7.7,1.5,1.2,2.5,1.4,1,.3,1.9,0,2.8-.5l8.1-4.8c.8-.6,1.4-1.3,1.6-2.3.2-1,0-1.8-.6-2.6-3.6-4.7-8.1-8.6-13.6-11.5-6.5-3.6-13.6-5.4-21.5-5.4s-11.9,1.2-17.4,3.5c-5.4,2.4-10.1,5.5-14.3,9.5-2.1,2.1-3.9,4.3-5.5,6.6-1.6,2.4-3,4.9-4.2,7.7-2.4,5.6-3.5,11.4-3.5,17.5s1.2,11.9,3.5,17.3c2.3,5.3,5.5,10,9.7,14.2,4.1,4.1,8.8,7.3,14.3,9.7,5.4,2.4,11.2,3.5,17.4,3.5s11-1,16.1-2.8c5.1-1.9,9.6-4.5,13.5-7.9,3.9-3.3,7-7.3,9.6-11.9,2.4-4.5,3.9-9.5,4.4-15.1,0-.3.1-1.2.2-2.7,0-1.5.1-3.2.2-4.7,0-1.2-.4-2.1-1.1-2.8Zm-105.3,45.1c.7-.7,1-1.5,1-2.6v-79c0-1-.3-1.9-1-2.6-.7-.7-1.5-1-2.6-1h-9.4c-1,0-1.9.3-2.5,1-.6.7-1,1.5-1,2.6v79c0,1,.3,1.9,1,2.6.6.7,1.5,1,2.5,1h9.4c1,0,1.9-.3,2.6-1Zm-100.2-10.5c.1,1,.6,1.7,1.5,2.3.8.6,1.7,1.2,2.5,1.7.8.5,1.5,1,2.4,1.5,1.3.8,2.6,1.5,3.9,2.2,1.4.6,2.7,1.3,4.1,1.8,3,1.3,6.1,2.2,9.4,2.7,3.4.7,7.4,1,11.9,1s9.2-.6,13.4-1.7c3.9-1,7.4-2.6,10.4-5,2.9-2.1,5.2-4.8,6.7-8.1,1.5-3.4,2.4-7.3,2.4-11.7s-.6-7.2-1.7-9.9c-1-2.6-2.5-4.9-4.5-6.8-.5-.5-1-.9-1.5-1.4-.5-.5-1.1-.8-1.7-1.2-.9-.6-1.9-1.3-3.2-1.9-1.2-.6-2.3-1.2-3.2-1.5-.6-.3-1.3-.5-1.9-.7-.6-.3-1.3-.5-1.9-.6-1.2-.4-2.4-.7-3.5-1-1.2-.3-2.3-.5-3.4-.6-1.1-.1-2.1-.3-3.1-.6s-1.9-.5-2.7-.6c-1.1-.3-2.3-.6-3.4-.8-1.2-.3-2.3-.5-3.5-.8-1.2-.3-2.3-.6-3.4-1-1-.3-2.1-.6-3.1-1.1-2-.8-3.6-1.7-4.8-3-1.3-1.2-1.9-2.6-1.9-4.4s.5-3.2,1.5-4.5c.6-.6,1.2-1.2,1.8-1.7.6-.5,1.4-.9,2.2-1.3,1.7-.8,3.4-1.4,5.2-1.7.8-.1,1.7-.3,2.5-.4.8,0,1.6-.1,2.3-.1,4.3,0,8.3.8,11.9,2.3,2.8,1,5.7,2.5,8.8,4.5.8.6,1.8.8,2.8.6,1-.1,1.8-.6,2.5-1.5l5-7.1c.6-.8.8-1.7.7-2.7-.1-1-.6-1.7-1.5-2.4-.9-.5-1.7-1-2.4-1.4-.7-.5-1.5-1-2.3-1.4-1.1-.6-2.3-1.2-3.4-1.8-1.2-.6-2.4-1.1-3.7-1.6-1.3-.4-2.5-.8-3.9-1.1-1.3-.3-2.6-.6-4.1-.9-2.8-.5-6.1-.7-9.7-.7s-7.6.4-11.4,1.2c-4,.8-7.5,2.2-10.6,4-3.2,2.1-5.8,4.7-7.8,7.9-2.1,3.5-3.1,7.7-3.1,12.6s.5,6.4,1.7,9c1.2,2.7,2.7,4.9,4.6,6.6,1.9,1.9,4,3.4,6.4,4.6,2.3,1.3,4.7,2.3,7.2,3,2.5.8,4.8,1.5,7.1,1.7,1.1.3,2.2.5,3.2.6,1,.2,1.9.4,2.8.5,1.4.3,2.6.5,3.9.7,1.2.3,2.5.5,3.6.8,1.3.3,2.4.6,3.4,1,1,.3,1.9.6,2.8,1.1,1.8.8,3.2,1.9,4.3,3,1.1,1.4,1.7,2.8,1.7,4.5s-.3,2.8-1,4c-.7,1.4-1.7,2.6-3.2,3.7-1.5,1.2-3.3,2.1-5.2,2.6-2.1.7-4.4,1-7.1,1-5.2,0-10.1-1.1-14.5-3.3-3.4-1.5-6.8-3.5-10.4-5.7-.9-.5-1.7-.8-2.7-.6-1,.1-1.7.6-2.3,1.5l-5,7.3c-.7,1-.9,1.9-.8,2.8Zm-74.7-38c.5-.3,1.2,0,1.9.6l51.8,48.1c.8.6,1.7.8,2.6.6,1-.2,1.5-.8,1.5-1.8v-80.6c0-1-.3-1.9-1.1-2.6-.7-.7-1.5-1-2.6-1h-9.2c-1,0-1.9.3-2.6,1-.7.7-1.1,1.5-1.1,2.6v44.9c0,1-.3,1.7-.8,1.9-.5.3-1.2,0-1.9-.7l-51.9-49c-.7-.6-1.5-.8-2.5-.6-1,.2-1.5.8-1.5,1.8v80.8c0,1,.3,1.9,1,2.6.7.7,1.5,1,2.5,1h9.4c1,0,1.9-.3,2.6-1,.7-.7,1.1-1.5,1.1-2.6v-44c0-1,.3-1.7.8-1.9Zm-39.7,48.5c.7-.7,1-1.5,1-2.6v-79c0-1-.3-1.9-1-2.6-.7-.7-1.5-1-2.6-1h-9.4c-1,0-1.9.3-2.5,1-.6.7-1,1.5-1,2.6v79c0,1,.3,1.9,1,2.6.6.7,1.5,1,2.5,1h9.4c1,0,1.9-.3,2.6-1Zm-72.6-12.8c-1.7-1.7-3.7-2.5-6.2-2.5s-4.4.8-6.1,2.5c-1.7,1.7-2.5,3.7-2.5,6.1s.8,4.5,2.5,6.2c1.7,1.7,3.7,2.5,6.1,2.5s4.5-.8,6.2-2.5c1.7-1.7,2.5-3.7,2.5-6.2s-.8-4.4-2.5-6.1Zm-74.4-15.1c-.4-.6-.4-1.4,0-2.4l9.4-19.5c.4-1,.9-1.4,1.5-1.4s1.2.5,1.5,1.4l9.2,19.5c.4.8.4,1.6,0,2.3-.3.6-1,1-2.1,1h-17.5c-1.1,0-1.8-.3-2.2-1Zm-32.5,28c.3.6,1,1,2.1,1h10.8c1,0,2-.3,3-1,1-.6,1.7-1.4,2.2-2.4l3.4-7c.4-1,1.1-1.7,2.1-2.4,1-.6,2.1-1,3.1-1h33.6c1,0,2,.3,3,1,1,.6,1.7,1.4,2.2,2.3l3.5,7.1c.4,1,1.1,1.7,2.1,2.4,1,.6,2.1,1,3.1,1h10.8c1,0,1.7-.3,2.1-1,.3-.6.3-1.4-.2-2.3l-41-81.8c-.5-1-1.3-1.4-2.4-1.4s-1.9.5-2.4,1.4l-41,81.8c-.6.9-.6,1.6-.2,2.3Zm8.3-71.9c.7-.7,1.1-1.5,1.1-2.6v-7.3c0-1-.3-1.9-1.1-2.6-.7-.7-1.5-1-2.6-1h-58.7c-1,0-1.9.3-2.6,1-.7.7-1.1,1.5-1.1,2.6v7.3c0,1,.4,1.9,1.1,2.6.7.7,1.5,1,2.6,1h17.5c1,0,1.9.3,2.6,1.1.7.7,1.1,1.5,1.1,2.6v64.5c0,1,.3,1.9,1,2.6.7.7,1.5,1,2.6,1h9.2c1,0,1.9-.3,2.6-1,.7-.7,1-1.5,1-2.6v-64.5c0-1,.4-1.9,1.1-2.6.7-.7,1.5-1.1,2.6-1.1h17.4c1,0,1.9-.3,2.6-1Zm-110.5,43.9c-.4-.6-.4-1.4,0-2.4l9.4-19.5c.4-1,.9-1.4,1.5-1.4s1.2.5,1.5,1.4l9.2,19.5c.4.8.4,1.6,0,2.3-.3.6-1,1-2.1,1h-17.5c-1,0-1.8-.3-2.2-1Zm-32.5,28c.3.6,1,1,2.1,1h10.8c1,0,2-.3,3-1,1-.6,1.7-1.4,2.2-2.4l3.4-7c.4-1,1.1-1.7,2.1-2.4,1-.6,2.1-1,3.1-1h33.6c1,0,2,.3,3,1,1,.6,1.7,1.4,2.2,2.3l3.5,7.1c.4,1,1.1,1.7,2.1,2.4,1,.6,2.1,1,3.1,1h10.8c1,0,1.7-.3,2.1-1,.4-.6.3-1.4-.2-2.3l-41-81.8c-.5-1-1.3-1.4-2.4-1.4s-1.9.5-2.4,1.4l-41,81.8c-.5.9-.6,1.6-.2,2.3Zm-59-14.8c-.6-.7-1-1.5-1-2.6v-49.6c0-1,.3-1.9,1-2.6.6-.7,1.5-1,2.5-1h14.1c2.9,0,6,.3,9.2,1,3.2.7,6,2.1,8.6,4.1,2.5,2,4.6,4.8,6.4,8.6,1.7,3.8,2.5,8.6,2.5,14.6s-.8,10.9-2.5,14.5c-1.7,3.8-3.9,6.6-6.4,8.6-2.6,2.1-5.4,3.5-8.5,4.3-3.2.7-6.3,1.1-9.4,1.1h-14.1c-1,0-1.9-.5-2.5-1.2Zm16.5,15.7c6.1,0,11.7-.9,16.9-2.7,5-1.7,9.5-4.4,13.6-8.1,4.3-3.9,7.5-8.6,9.6-14.1,1.1-2.8,1.9-5.7,2.5-8.7.6-3,.8-6.3.8-9.7,0-6.5-1.1-12.6-3.3-18.4-2.1-5.3-5.3-10-9.6-13.9-7.9-7.2-18.1-10.8-30.5-10.8H4.4c-1,0-1.9.3-2.5,1-.6.7-1,1.5-1,2.6v79.1c0,1,.3,1.9,1,2.6.6.7,1.5,1,2.5,1h30.5Z" style="fill:#365a78;"></path></svg>